<svg width="289" height="79" viewBox="0 0 289 79" fill="none" xmlns="http://www.w3.org/2000/svg">
<path d="M1 53.5511C22.2779 58.3635 77.7009 67.9885 129.17 67.9885C193.506 67.9885 198.532 51.5597 198.532 43.5942C198.532 35.6288 199.538 21.6892 204.061 12.2302C208.585 2.77125 216.627 0.282045 214.114 6.25614C211.601 12.2302 205.569 21.1913 208.082 25.6719C210.595 30.1524 217.632 3.76684 224.166 1.27763C230.701 -1.21158 221.653 13.7237 220.145 18.7021C218.637 23.6805 216.124 29.6545 220.145 27.6632C224.166 25.6719 228.69 6.25614 232.711 6.25614C236.732 6.25614 235.224 15.715 232.711 20.6934C230.198 25.6719 224.166 32.6416 227.182 34.633C230.198 36.6243 238.24 32.6416 240.25 25.6719C242.189 18.9532 248.649 21.0995 246.282 27.6632C243.769 34.633 241.256 47.5767 232.711 50.5639C224.166 53.5511 221.053 51.3324 216.124 53.5511C210.595 56.0402 168.877 84.9148 220.145 76.4517C261.16 69.6811 282.471 62.3462 288 59.5251" stroke="#BCC3FF"/>
</svg>
